<svg id="Capa_1" data-name="Capa 1" xmlns="http://www.w3.org/2000/svg" viewBox="0 0 563.89 170"><defs><style>.cls-1{fill:#fff;}</style></defs><path class="cls-1" d="M492.12,119.18a1.82,1.82,0,0,1-.65-.12l-21.75-8.43L448,119.06a1.82,1.82,0,0,1-1.68-.2,1.79,1.79,0,0,1-.78-1.49V84.61a1.8,1.8,0,0,1,3-1.36c11.7,10.23,30.73,10.24,42.43,0a1.8,1.8,0,0,1,3,1.36v32.76a1.79,1.79,0,0,1-.78,1.49A1.81,1.81,0,0,1,492.12,119.18Zm-22.4-12.29a1.82,1.82,0,0,1,.65.12l19.94,7.73V88.29a37.26,37.26,0,0,1-41.19,0v26.45L469.06,107A1.88,1.88,0,0,1,469.72,106.89Z"/><path class="cls-1" d="M469.72,97h0a38.12,38.12,0,0,1-25.29-9.19c-7.64-6.72-11.77-16.24-12-27.53v-.14c.2-11.3,4.34-20.81,12-27.53a38.14,38.14,0,0,1,25.3-9.19h0A38.12,38.12,0,0,1,495,32.58c7.64,6.72,11.78,16.24,12,27.53v.14c-.19,11.3-4.33,20.81-12,27.53A38.12,38.12,0,0,1,469.72,97ZM441,60.18c.17,8.78,3.3,16.09,9.06,21.16a29.61,29.61,0,0,0,19.62,7.06h0a29.56,29.56,0,0,0,19.62-7.06c5.76-5.07,8.89-12.38,9.06-21.16-.17-8.78-3.29-16.09-9-21.16A29.6,29.6,0,0,0,469.72,32h0A29.57,29.57,0,0,0,450.09,39C444.33,44.09,441.2,51.4,441,60.18Z"/><path class="cls-1" d="M454,61.42c-1.29-1.22,1.08-2.64,1.73-3.46a1.22,1.22,0,0,1,1.85.12l6.8,7.29a.59.59,0,0,0,.86,0L481.83,48.2H482c1.21-1.3,2.65,1.08,3.46,1.73a1.2,1.2,0,0,1,0,1.73h0L465.64,72.17a1.14,1.14,0,0,1-.86.37C464,72.91,454.43,61.78,454,61.42Z"/><path class="cls-1" d="M293.11,132.06c6.87,0,12.07,5.11,12.07,13.05s-5.25,13.23-12.07,13.23a10.62,10.62,0,0,1-9.52-5.1v4.69h-4.23V123.56h4.23v13.65A10.77,10.77,0,0,1,293.11,132.06Zm-.88,3.67c-4.6,0-8.64,3.53-8.64,9.43s4,9.47,8.64,9.47,8.63-3.53,8.63-9.52S296.92,135.73,292.23,135.73Z"/><path class="cls-1" d="M327.14,132.48h4.37l-15.32,37.43h-4.37l5-12.26-10.27-25.17h4.69l8,20.62Z"/><path class="cls-1" d="M360.49,158.25c-9.11,0-16.26-6.83-16.26-16.53s7.15-16.53,16.26-16.53,16.25,6.82,16.25,16.53S369.63,158.25,360.49,158.25Zm0-3.67c6.82,0,11.93-5,11.93-12.86s-5.11-12.86-11.93-12.86-11.94,4.92-11.94,12.86S353.66,154.58,360.49,154.58Z"/><path class="cls-1" d="M381.15,123.56h4.22v34.37h-4.22Z"/><path class="cls-1" d="M390.71,125.47a2.84,2.84,0,1,1,2.88,2.88A2.84,2.84,0,0,1,390.71,125.47Zm.7,7h4.23v25.45h-4.23Z"/><path class="cls-1" d="M438.41,143.53c0-5.2-2.79-7.85-7-7.85s-7.2,2.74-7.2,8.22v14h-4.18v-14.4c0-5.2-2.78-7.85-7-7.85s-7.2,2.74-7.2,8.22v14h-4.23V132.48h4.23v3.67a9.19,9.19,0,0,1,8-4.14c4.18,0,7.66,1.86,9.34,5.67a9.41,9.41,0,0,1,9-5.67c5.8,0,10.3,3.63,10.3,10.92v15h-4.17Z"/><path class="cls-1" d="M462.09,132.06c6.82,0,12.07,5.11,12.07,13.05s-5.25,13.23-12.07,13.23a11,11,0,0,1-9.52-5.1V170h-4.23V132.48h4.23v4.69A10.73,10.73,0,0,1,462.09,132.06Zm-.89,3.67c-4.59,0-8.63,3.53-8.63,9.43s4,9.47,8.63,9.47,8.64-3.53,8.64-9.52S465.89,135.73,461.2,135.73Z"/><path class="cls-1" d="M477.87,125.47a2.84,2.84,0,1,1,2.88,2.88A2.84,2.84,0,0,1,477.87,125.47Zm.7,7h4.23v25.45h-4.23Z"/><path class="cls-1" d="M499.33,132.06a10.56,10.56,0,0,1,9.47,5.06v-4.64h4.27v25.45H508.8v-4.74a10.62,10.62,0,0,1-9.52,5.15c-6.78,0-12-5.34-12-13.23S492.5,132.06,499.33,132.06Zm.83,3.67c-4.64,0-8.59,3.39-8.59,9.38s3.95,9.52,8.59,9.52,8.64-3.48,8.64-9.47S504.81,135.73,500.16,135.73Z"/><path class="cls-1" d="M530.3,125.56h4.22v32.37H530.3Z"/><path class="cls-1" d="M538.56,125.56h21.92V129h-8.82v28.93h-4.23V129h-8.87Z"/><path class="cls-1" d="M18.3,24.52v20.9H54.91V60.11H18.3V88.92H0V9.83H59.77V24.52Z"/><path class="cls-1" d="M135.93,27.23V43.5c-1.47-.11-2.6-.22-4-.22-9.72,0-16.16,5.31-16.16,16.94v28.7H98.19V28.14H115v8C119.32,30.28,126.55,27.23,135.93,27.23Z"/><path class="cls-1" d="M246.32,54.12v34.8H228.7V56.83c0-9.83-4.41-14.35-11.53-14.35-7.91,0-13.44,5.09-13.44,15.94v30.5H186.1V56.83c0-9.83-4.18-14.35-11.53-14.35-7.79,0-13.33,5.09-13.33,15.94v30.5H143.62V28.14h16.83v7c4.52-5.2,11.3-7.91,19.1-7.91,8.47,0,15.7,3.28,20,9.94,4.85-6.21,12.76-9.94,21.92-9.94C235.93,27.23,246.32,35.59,246.32,54.12Z"/><path class="cls-1" d="M313.1,54.24V88.92H296.61V81.35c-3.28,5.54-9.61,8.48-18.53,8.48-14.24,0-22.71-7.91-22.71-18.42,0-10.73,7.57-18.19,26.1-18.19h14c0-7.57-4.52-12-14-12-6.44,0-13.11,2.15-17.52,5.65l-6.32-12.31c6.66-4.75,16.49-7.35,26.21-7.35C302.37,27.23,313.1,35.82,313.1,54.24ZM295.48,69.72V63.5H283.39c-8.25,0-10.85,3-10.85,7.12,0,4.41,3.73,7.34,9.94,7.34C288.36,78,293.44,75.25,295.48,69.72Z"/><path class="cls-1" d="M428.92,54.12v34.8H411.29V56.83c0-9.83-4.4-14.35-11.52-14.35-7.91,0-13.45,5.09-13.45,15.94v30.5H368.7V56.83c0-9.83-4.18-14.35-11.53-14.35-7.79,0-13.33,5.09-13.33,15.94v30.5H326.21V28.14h16.84v7c4.52-5.2,11.3-7.91,19.09-7.91,8.48,0,15.71,3.28,20,9.94,4.86-6.21,12.77-9.94,21.92-9.94C418.53,27.23,428.92,35.59,428.92,54.12Z"/><path class="cls-1" d="M507.91,83.27l5.87-12.65c5.43,3.5,13.67,5.88,21.13,5.88,8.14,0,11.19-2.15,11.19-5.54,0-9.94-36.73.22-36.73-24.07,0-11.52,10.4-19.66,28.14-19.66,8.36,0,17.63,1.92,23.39,5.31L555,45.08a34.89,34.89,0,0,0-17.51-4.52c-7.91,0-11.3,2.49-11.3,5.65,0,10.4,36.72.34,36.72,24.3,0,11.3-10.51,19.32-28.7,19.32C524,89.83,513.56,87,507.91,83.27Z"/><path class="cls-1" d="M66.5,9.83c0-5.54,4.41-9.83,11-9.83s11,4.07,11,9.49c0,5.88-4.41,10.17-11,10.17S66.5,15.37,66.5,9.83Zm2.15,18.31H86.27V88.92H68.65Z"/><rect class="cls-1" x="0.96" y="100.85" width="429.13" height="6.96"/><rect class="cls-1" x="508.25" y="100.86" width="55.64" height="6.96"/></svg>